<?xml version="1.0" encoding="UTF-8"?>
<svg xmlns="http://www.w3.org/2000/svg" xmlns:xlink="http://www.w3.org/1999/xlink" width="100px" height="100px" viewBox="0 0 53 40" version="1.1">
<g id="surface1">
<path style=" stroke:none;fill-rule:nonzero;fill:rgb(12.941177%,12.941177%,12.941177%);fill-opacity:1;" d="M 17.96875 22.097656 C 17.65625 22.097656 17.402344 22.0625 17.179688 21.992188 C 16.960938 21.921875 16.785156 21.832031 16.652344 21.722656 C 16.507812 21.617188 16.414062 21.511719 16.339844 21.40625 C 16.28125 21.296875 16.234375 21.207031 16.234375 21.136719 C 16.234375 21.085938 16.246094 21.039062 16.28125 21.003906 C 16.316406 20.96875 16.359375 20.960938 16.402344 20.960938 L 17.011719 20.960938 C 17.03125 20.960938 17.046875 20.960938 17.066406 20.96875 C 17.082031 20.96875 17.101562 20.988281 17.128906 21.011719 C 17.191406 21.066406 17.261719 21.128906 17.339844 21.191406 C 17.410156 21.253906 17.5 21.308594 17.605469 21.351562 C 17.710938 21.394531 17.835938 21.414062 17.984375 21.414062 C 18.1875 21.414062 18.347656 21.378906 18.488281 21.296875 C 18.621094 21.21875 18.691406 21.101562 18.691406 20.960938 C 18.691406 20.851562 18.664062 20.765625 18.601562 20.703125 C 18.542969 20.640625 18.433594 20.578125 18.277344 20.523438 C 18.117188 20.472656 17.894531 20.417969 17.605469 20.355469 C 17.320312 20.292969 17.082031 20.203125 16.898438 20.105469 C 16.710938 20 16.570312 19.875 16.472656 19.722656 C 16.378906 19.574219 16.332031 19.394531 16.332031 19.191406 C 16.332031 18.988281 16.394531 18.800781 16.507812 18.621094 C 16.632812 18.445312 16.808594 18.292969 17.046875 18.179688 C 17.285156 18.0625 17.578125 18 17.933594 18 C 18.207031 18 18.445312 18.035156 18.648438 18.105469 C 18.851562 18.179688 19.019531 18.265625 19.152344 18.363281 C 19.28125 18.472656 19.390625 18.570312 19.460938 18.675781 C 19.53125 18.78125 19.566406 18.871094 19.574219 18.949219 C 19.574219 19.003906 19.566406 19.050781 19.53125 19.085938 C 19.496094 19.121094 19.449219 19.128906 19.40625 19.128906 L 18.839844 19.128906 C 18.816406 19.128906 18.796875 19.128906 18.769531 19.109375 C 18.753906 19.101562 18.726562 19.085938 18.710938 19.074219 C 18.65625 19.023438 18.59375 18.96875 18.523438 18.914062 C 18.460938 18.863281 18.382812 18.808594 18.285156 18.765625 C 18.1875 18.71875 18.0625 18.703125 17.914062 18.703125 C 17.71875 18.703125 17.570312 18.746094 17.472656 18.828125 C 17.367188 18.90625 17.320312 19.011719 17.320312 19.148438 C 17.320312 19.234375 17.347656 19.308594 17.394531 19.367188 C 17.4375 19.429688 17.535156 19.492188 17.683594 19.546875 C 17.835938 19.601562 18.054688 19.664062 18.355469 19.722656 C 18.699219 19.785156 18.964844 19.875 19.167969 20 C 19.371094 20.125 19.511719 20.257812 19.59375 20.410156 C 19.671875 20.570312 19.714844 20.738281 19.714844 20.925781 C 19.714844 21.15625 19.644531 21.359375 19.511719 21.546875 C 19.378906 21.734375 19.175781 21.875 18.914062 21.980469 C 18.683594 22.042969 18.355469 22.097656 17.96875 22.097656 Z M 17.96875 22.097656 "/>
<path style=" stroke:none;fill-rule:nonzero;fill:rgb(12.941177%,12.941177%,12.941177%);fill-opacity:1;" d="M 22.296875 21.34375 C 22.558594 21.34375 22.773438 21.253906 22.921875 21.085938 C 23.074219 20.914062 23.152344 20.667969 23.167969 20.328125 C 23.167969 20.25 23.179688 20.152344 23.179688 20.035156 C 23.179688 19.910156 23.179688 19.8125 23.167969 19.742188 C 23.152344 19.414062 23.074219 19.164062 22.921875 18.996094 C 22.773438 18.828125 22.570312 18.738281 22.296875 18.738281 C 22.03125 18.738281 21.816406 18.828125 21.667969 18.996094 C 21.519531 19.164062 21.4375 19.414062 21.421875 19.742188 C 21.421875 19.820312 21.410156 19.921875 21.410156 20.035156 C 21.410156 20.160156 21.410156 20.257812 21.421875 20.328125 C 21.4375 20.65625 21.519531 20.914062 21.667969 21.085938 C 21.816406 21.261719 22.023438 21.34375 22.296875 21.34375 Z M 22.296875 22.097656 C 21.890625 22.097656 21.542969 22.027344 21.269531 21.882812 C 20.996094 21.742188 20.785156 21.539062 20.632812 21.28125 C 20.492188 21.023438 20.40625 20.71875 20.386719 20.375 C 20.386719 20.277344 20.378906 20.167969 20.378906 20.035156 C 20.378906 19.902344 20.378906 19.785156 20.386719 19.699219 C 20.40625 19.34375 20.492188 19.039062 20.644531 18.78125 C 20.792969 18.523438 21.003906 18.328125 21.289062 18.179688 C 21.5625 18.035156 21.90625 17.964844 22.296875 17.964844 C 22.691406 17.964844 23.027344 18.035156 23.300781 18.179688 C 23.574219 18.320312 23.789062 18.523438 23.945312 18.78125 C 24.097656 19.039062 24.1875 19.34375 24.203125 19.699219 C 24.203125 19.796875 24.210938 19.902344 24.210938 20.035156 C 24.210938 20.167969 24.210938 20.285156 24.203125 20.375 C 24.1875 20.71875 24.097656 21.023438 23.957031 21.28125 C 23.816406 21.539062 23.601562 21.742188 23.320312 21.882812 C 23.046875 22.027344 22.703125 22.097656 22.296875 22.097656 Z M 22.296875 22.097656 "/>
<path style=" stroke:none;fill-rule:nonzero;fill:rgb(12.941177%,12.941177%,12.941177%);fill-opacity:1;" d="M 28.683594 21.34375 C 28.945312 21.34375 29.160156 21.253906 29.308594 21.085938 C 29.460938 20.914062 29.539062 20.667969 29.554688 20.328125 C 29.554688 20.25 29.566406 20.152344 29.566406 20.035156 C 29.566406 19.910156 29.566406 19.8125 29.554688 19.742188 C 29.539062 19.414062 29.460938 19.164062 29.308594 18.996094 C 29.160156 18.828125 28.957031 18.738281 28.683594 18.738281 C 28.40625 18.738281 28.203125 18.828125 28.054688 18.996094 C 27.90625 19.164062 27.824219 19.414062 27.808594 19.742188 C 27.808594 19.820312 27.796875 19.921875 27.796875 20.035156 C 27.796875 20.160156 27.796875 20.257812 27.808594 20.328125 C 27.824219 20.65625 27.90625 20.914062 28.054688 21.085938 C 28.195312 21.261719 28.40625 21.34375 28.683594 21.34375 Z M 28.683594 22.097656 C 28.277344 22.097656 27.929688 22.027344 27.65625 21.882812 C 27.382812 21.742188 27.171875 21.539062 27.019531 21.28125 C 26.878906 21.023438 26.792969 20.71875 26.773438 20.375 C 26.773438 20.277344 26.765625 20.167969 26.765625 20.035156 C 26.765625 19.902344 26.765625 19.785156 26.773438 19.699219 C 26.792969 19.34375 26.878906 19.039062 27.03125 18.78125 C 27.179688 18.523438 27.390625 18.328125 27.675781 18.179688 C 27.949219 18.035156 28.292969 17.964844 28.683594 17.964844 C 29.078125 17.964844 29.414062 18.035156 29.6875 18.179688 C 29.960938 18.320312 30.175781 18.523438 30.332031 18.78125 C 30.484375 19.039062 30.570312 19.34375 30.589844 19.699219 C 30.589844 19.796875 30.597656 19.902344 30.597656 20.035156 C 30.597656 20.167969 30.597656 20.285156 30.589844 20.375 C 30.570312 20.71875 30.484375 21.023438 30.34375 21.28125 C 30.199219 21.539062 29.988281 21.742188 29.707031 21.882812 C 29.425781 22.027344 29.089844 22.097656 28.683594 22.097656 Z M 28.683594 22.097656 "/>
<path style=" stroke:none;fill-rule:nonzero;fill:rgb(12.941177%,12.941177%,12.941177%);fill-opacity:1;" d="M 34.175781 19.6875 L 35.863281 19.6875 L 35.863281 19.664062 C 35.863281 19.457031 35.828125 19.289062 35.765625 19.148438 C 35.703125 18.996094 35.605469 18.878906 35.476562 18.792969 C 35.351562 18.703125 35.191406 18.65625 35.015625 18.65625 C 34.839844 18.65625 34.6875 18.703125 34.554688 18.792969 C 34.433594 18.878906 34.335938 18.996094 34.273438 19.148438 C 34.210938 19.296875 34.175781 19.464844 34.175781 19.664062 Z M 35.015625 22.097656 C 34.449219 22.097656 34 21.9375 33.671875 21.609375 C 33.347656 21.28125 33.160156 20.816406 33.132812 20.214844 C 33.132812 20.160156 33.125 20.097656 33.125 20.019531 C 33.125 19.9375 33.125 19.875 33.132812 19.832031 C 33.152344 19.449219 33.238281 19.109375 33.398438 18.835938 C 33.558594 18.550781 33.769531 18.335938 34.042969 18.1875 C 34.316406 18.035156 34.644531 17.964844 35.015625 17.964844 C 35.429688 17.964844 35.773438 18.054688 36.058594 18.222656 C 36.339844 18.390625 36.542969 18.632812 36.695312 18.933594 C 36.835938 19.234375 36.90625 19.589844 36.90625 19.980469 L 36.90625 20.140625 C 36.90625 20.195312 36.886719 20.238281 36.851562 20.277344 C 36.816406 20.3125 36.773438 20.328125 36.710938 20.328125 L 34.175781 20.328125 L 34.175781 20.390625 C 34.175781 20.570312 34.210938 20.738281 34.28125 20.890625 C 34.34375 21.039062 34.441406 21.164062 34.566406 21.253906 C 34.6875 21.351562 34.839844 21.394531 35.007812 21.394531 C 35.148438 21.394531 35.273438 21.378906 35.367188 21.332031 C 35.464844 21.289062 35.546875 21.234375 35.605469 21.183594 C 35.667969 21.128906 35.714844 21.085938 35.738281 21.039062 C 35.785156 20.976562 35.820312 20.941406 35.84375 20.933594 C 35.871094 20.914062 35.917969 20.914062 35.96875 20.914062 L 36.621094 20.914062 C 36.675781 20.914062 36.71875 20.933594 36.746094 20.960938 C 36.78125 20.996094 36.789062 21.03125 36.789062 21.074219 C 36.78125 21.15625 36.746094 21.253906 36.667969 21.367188 C 36.585938 21.484375 36.472656 21.601562 36.332031 21.714844 C 36.179688 21.820312 36.003906 21.921875 35.785156 22 C 35.554688 22.0625 35.296875 22.097656 35.015625 22.097656 Z M 35.015625 22.097656 "/>
<path style=" stroke:none;fill-rule:nonzero;fill:rgb(12.941177%,12.941177%,12.941177%);fill-opacity:1;" d="M 39.617188 21.367188 L 39.148438 21.394531 C 38.847656 21.414062 38.585938 21.171875 38.585938 20.863281 C 38.585938 20.59375 38.777344 20.375 39.042969 20.328125 L 39.988281 20.203125 L 39.988281 20.96875 C 39.988281 21.171875 39.828125 21.351562 39.617188 21.367188 Z M 40.914062 18.871094 C 40.855469 18.691406 40.757812 18.535156 40.625 18.398438 C 40.492188 18.265625 40.316406 18.160156 40.09375 18.078125 C 39.875 18 39.601562 17.964844 39.28125 17.964844 C 38.980469 17.964844 38.734375 18 38.523438 18.078125 C 38.308594 18.160156 38.140625 18.25 38.011719 18.363281 C 37.878906 18.472656 37.78125 18.585938 37.71875 18.703125 C 37.65625 18.816406 37.621094 18.925781 37.621094 18.996094 C 37.621094 19.050781 37.640625 19.09375 37.664062 19.121094 C 37.691406 19.15625 37.734375 19.164062 37.789062 19.164062 L 38.390625 19.164062 C 38.46875 19.164062 38.523438 19.128906 38.566406 19.066406 C 38.621094 18.941406 38.707031 18.84375 38.824219 18.773438 C 38.9375 18.703125 39.085938 18.667969 39.265625 18.667969 C 39.519531 18.667969 39.707031 18.730469 39.8125 18.84375 C 39.917969 18.960938 39.972656 19.128906 39.972656 19.34375 L 39.972656 19.609375 L 38.636719 19.714844 C 38.011719 19.761719 37.53125 20.285156 37.53125 20.914062 C 37.53125 21.582031 38.070312 22.117188 38.734375 22.117188 L 39.953125 22.117188 C 40.527344 22.117188 40.996094 21.644531 40.996094 21.066406 L 40.996094 19.449219 C 41.003906 19.234375 40.976562 19.050781 40.914062 18.871094 Z M 40.914062 18.871094 "/>
<path style=" stroke:none;fill-rule:nonzero;fill:rgb(12.941177%,12.941177%,12.941177%);fill-opacity:1;" d="M 31.535156 16.585938 L 32.214844 16.585938 C 32.304688 16.585938 32.375 16.65625 32.375 16.746094 L 32.375 21.867188 C 32.375 21.957031 32.304688 22.027344 32.214844 22.027344 L 31.535156 22.027344 C 31.445312 22.027344 31.375 21.957031 31.375 21.867188 L 31.375 16.753906 C 31.367188 16.667969 31.4375 16.585938 31.535156 16.585938 Z M 31.535156 16.585938 "/>
<path style=" stroke:none;fill-rule:nonzero;fill:rgb(12.941177%,12.941177%,12.941177%);fill-opacity:1;" d="M 25.148438 16.585938 L 25.828125 16.585938 C 25.917969 16.585938 25.988281 16.65625 25.988281 16.746094 L 25.988281 21.867188 C 25.988281 21.957031 25.917969 22.027344 25.828125 22.027344 L 25.148438 22.027344 C 25.058594 22.027344 24.988281 21.957031 24.988281 21.867188 L 24.988281 16.753906 C 24.980469 16.667969 25.058594 16.585938 25.148438 16.585938 Z M 25.148438 16.585938 "/>
<path style=" stroke:none;fill-rule:nonzero;fill:rgb(12.941177%,12.941177%,12.941177%);fill-opacity:1;" d="M 42.011719 22.042969 C 41.96875 22.042969 41.921875 22.027344 41.886719 22 C 41.851562 21.964844 41.824219 21.910156 41.824219 21.859375 L 41.824219 19.023438 C 41.824219 18.445312 42.292969 17.972656 42.867188 17.972656 C 43.230469 17.972656 43.511719 17.972656 44.023438 17.964844 C 44.132812 17.964844 44.226562 18.054688 44.226562 18.167969 L 44.226562 18.515625 C 44.226562 18.621094 44.140625 18.71875 44.023438 18.71875 L 43.257812 18.71875 C 43.035156 18.71875 42.859375 18.898438 42.859375 19.121094 L 42.859375 21.867188 C 42.859375 21.921875 42.839844 21.964844 42.804688 21.992188 C 42.769531 22.027344 42.726562 22.042969 42.675781 22.042969 Z M 42.011719 22.042969 "/>
<path style=" stroke:none;fill-rule:nonzero;fill:rgb(12.941177%,12.941177%,12.941177%);fill-opacity:1;" d="M 44.503906 19.519531 L 44.503906 21.839844 C 44.503906 21.945312 44.589844 22.042969 44.707031 22.042969 L 45.339844 22.042969 C 45.449219 22.042969 45.542969 21.957031 45.542969 21.839844 L 45.542969 19.503906 C 45.542969 19.03125 45.925781 18.65625 46.382812 18.65625 C 46.851562 18.65625 47.222656 19.03125 47.222656 19.503906 L 47.222656 21.839844 C 47.222656 21.945312 47.3125 22.042969 47.425781 22.042969 L 48.0625 22.042969 C 48.167969 22.042969 48.265625 21.957031 48.265625 21.839844 L 48.265625 19.519531 C 48.265625 18.65625 47.578125 17.964844 46.710938 17.964844 L 46.046875 17.964844 C 45.199219 17.964844 44.503906 18.667969 44.503906 19.519531 Z M 44.503906 19.519531 "/>
<path style=" stroke:none;fill-rule:nonzero;fill:rgb(96.078432%,60.392159%,12.941177%);fill-opacity:1;" d="M 10.617188 17.75 C 11.5 17.75 12.296875 18.140625 12.835938 18.753906 C 13.019531 18.960938 13.355469 18.816406 13.328125 18.542969 C 13.3125 18.363281 13.277344 18.179688 13.222656 18 C 12.949219 17.023438 12.171875 16.265625 11.191406 16.007812 C 9.230469 15.492188 7.464844 16.960938 7.464844 18.84375 C 7.464844 18.96875 7.472656 19.085938 7.480469 19.199219 C 7.515625 19.476562 7.878906 19.546875 8.011719 19.296875 C 8.515625 18.382812 9.496094 17.75 10.617188 17.75 Z M 10.617188 17.75 "/>
<path style=" stroke:none;fill-rule:nonzero;fill:rgb(26.274511%,60.000002%,83.137256%);fill-opacity:1;" d="M 6.933594 18.621094 C 6.933594 17.734375 7.324219 16.941406 7.941406 16.398438 C 8.144531 16.214844 8.003906 15.875 7.730469 15.902344 C 7.542969 15.921875 7.367188 15.957031 7.179688 16 C 6.210938 16.277344 5.449219 17.058594 5.195312 18.035156 C 4.683594 20.007812 6.148438 21.777344 8.03125 21.777344 C 8.152344 21.777344 8.269531 21.769531 8.390625 21.761719 C 8.664062 21.722656 8.734375 21.359375 8.488281 21.226562 C 7.5625 20.730469 6.933594 19.75 6.933594 18.621094 Z M 6.933594 18.621094 "/>
<path style=" stroke:none;fill-rule:nonzero;fill:rgb(90.196079%,9.803922%,36.078432%);fill-opacity:1;" d="M 7.800781 22.3125 C 6.917969 22.3125 6.121094 21.921875 5.582031 21.308594 C 5.398438 21.101562 5.0625 21.246094 5.089844 21.519531 C 5.105469 21.699219 5.140625 21.882812 5.195312 22.0625 C 5.46875 23.039062 6.246094 23.796875 7.226562 24.054688 C 9.195312 24.570312 10.960938 23.09375 10.960938 21.207031 C 10.960938 21.085938 10.953125 20.96875 10.945312 20.851562 C 10.910156 20.578125 10.546875 20.507812 10.414062 20.753906 C 9.902344 21.6875 8.929688 22.3125 7.800781 22.3125 Z M 7.800781 22.3125 "/>
<path style=" stroke:none;fill-rule:nonzero;fill:rgb(40.392157%,32.941177%,62.352943%);fill-opacity:1;" d="M 11.484375 21.449219 C 11.484375 22.335938 11.09375 23.128906 10.476562 23.671875 C 10.273438 23.859375 10.414062 24.195312 10.6875 24.167969 C 10.863281 24.152344 11.050781 24.117188 11.234375 24.0625 C 12.207031 23.785156 12.96875 23.003906 13.222656 22.027344 C 13.734375 20.054688 12.269531 18.285156 10.386719 18.285156 C 10.265625 18.285156 10.148438 18.292969 10.027344 18.300781 C 9.753906 18.335938 9.679688 18.703125 9.929688 18.835938 C 10.855469 19.34375 11.484375 20.320312 11.484375 21.449219 Z M 11.484375 21.449219 "/>
</g>
</svg>
