<svg xmlns="http://www.w3.org/2000/svg" xmlns:xlink="http://www.w3.org/1999/xlink" width="500" zoomAndPan="magnify" viewBox="0 0 375 374.999991" height="500" preserveAspectRatio="xMidYMid meet" version="1.0"><defs><g/><clipPath id="6fc19f814b"><path d="M 0.601562 0.0390625 L 209.160156 0.0390625 L 209.160156 175.480469 L 0.601562 175.480469 Z M 0.601562 0.0390625 " clip-rule="nonzero"/></clipPath><clipPath id="cb9e5c429b"><path d="M 69 0.0390625 L 209.160156 0.0390625 L 209.160156 175.480469 L 69 175.480469 Z M 69 0.0390625 " clip-rule="nonzero"/></clipPath><clipPath id="348c878257"><rect x="0" width="210" y="0" height="176"/></clipPath><clipPath id="8774694e35"><path d="M 0.839844 0.238281 L 219.960938 0.238281 L 219.960938 183.359375 L 0.839844 183.359375 Z M 0.839844 0.238281 " clip-rule="nonzero"/></clipPath><clipPath id="b469b50f8f"><rect x="0" width="220" y="0" height="184"/></clipPath></defs><g transform="matrix(1, 0, 0, 1, 111, 71)"><g clip-path="url(#348c878257)"><g clip-path="url(#6fc19f814b)"><path stroke-linecap="round" transform="matrix(0.700795, 0.586838, -0.586838, 0.700795, 17.754591, 0.513367)" fill="none" stroke-linejoin="miter" d="M 11.999093 12.000597 L 256.318713 11.999258 " stroke="#ffffff" stroke-width="24" stroke-opacity="1" stroke-miterlimit="4"/></g><g clip-path="url(#cb9e5c429b)"><path stroke-linecap="round" transform="matrix(-0.0170855, 0.913893, -0.913893, -0.0170855, 207.694467, 5.470361)" fill="none" stroke-linejoin="miter" d="M 11.998256 11.999255 L 164.19747 12.000528 " stroke="#ffffff" stroke-width="24" stroke-opacity="1" stroke-miterlimit="4"/></g></g></g><g transform="matrix(1, 0, 0, 1, 51, 120)"><g clip-path="url(#b469b50f8f)"><g clip-path="url(#8774694e35)"><path stroke-linecap="round" transform="matrix(-0.759129, -0.611914, 0.611914, -0.759129, 205.196971, 183.288407)" fill="none" stroke-linejoin="miter" d="M 12.000536 11.999514 L 256.31748 11.998308 " stroke="#ffffff" stroke-width="24" stroke-opacity="1" stroke-miterlimit="4"/></g><path stroke-linecap="round" transform="matrix(0, -0.975046, 0.975046, 0, 2.519195, 181.788818)" fill="none" stroke-linejoin="miter" d="M 11.998381 11.998976 L 164.194716 11.998976 " stroke="#ffffff" stroke-width="24" stroke-opacity="1" stroke-miterlimit="4"/></g></g><g fill="#ffffff" fill-opacity="1"><g transform="translate(127.241904, 154.186828)"><g><path d="M 1.015625 0.859375 L 20.359375 -22.03125 L 25.078125 -18.046875 L 17.9375 -5.3125 L 27.1875 -16.265625 L 31.59375 -12.53125 L 12.25 10.359375 L 7.78125 6.578125 L 15.171875 -6.8125 L 5.484375 4.640625 Z M 1.015625 0.859375 "/></g></g></g><g fill="#ffffff" fill-opacity="1"><g transform="translate(140.509502, 165.403487)"><g><path d="M 0.390625 0.328125 L 21.953125 -20.6875 L 29.71875 -14.125 L 12.546875 10.609375 L 8.203125 6.9375 L 11.015625 2.96875 L 8.25 0.625 L 4.84375 4.09375 Z M 11.6875 -2.71875 L 13.765625 -0.96875 L 22.59375 -13.484375 L 22.375 -13.65625 Z M 11.6875 -2.71875 "/></g></g></g><g fill="#ffffff" fill-opacity="1"><g transform="translate(153.430756, 176.327341)"><g><path d="M 1.015625 0.859375 L 20.359375 -22.03125 L 27.34375 -16.125 L 17.46875 -0.546875 L 31.171875 -12.890625 L 38.203125 -6.9375 L 18.859375 15.953125 L 14.671875 12.40625 L 28.609375 -4.078125 L 12.046875 10.171875 L 7.9375 6.703125 L 19.078125 -12.140625 L 5.140625 4.34375 Z M 1.015625 0.859375 "/></g></g></g><g fill="#ffffff" fill-opacity="1"><g transform="translate(173.305506, 193.129802)"><g><path d="M 1.015625 0.859375 L 20.359375 -22.03125 L 29.515625 -14.28125 L 25.78125 -9.84375 L 21.296875 -13.65625 L 17.546875 -9.21875 L 21.84375 -5.578125 L 18.1875 -1.265625 L 13.890625 -4.90625 L 9.453125 0.34375 L 14.234375 4.40625 L 10.46875 8.859375 Z M 1.015625 0.859375 "/></g></g></g><g fill="#ffffff" fill-opacity="1"><g transform="translate(184.281912, 202.409448)"><g><path d="M 20.359375 -22.03125 L 27.390625 -16.09375 C 28.503906 -15.144531 29.15625 -14.15625 29.34375 -13.125 C 29.53125 -12.101562 29.34375 -11.046875 28.78125 -9.953125 C 28.226562 -8.859375 27.347656 -7.597656 26.140625 -6.171875 C 25.046875 -4.878906 24.019531 -4.007812 23.0625 -3.5625 C 22.113281 -3.113281 21.101562 -3.101562 20.03125 -3.53125 C 20.613281 -2.8125 20.820312 -2.046875 20.65625 -1.234375 C 20.5 -0.421875 20.023438 0.457031 19.234375 1.40625 L 11.859375 10.03125 L 7.390625 6.25 L 14.953125 -2.703125 C 15.492188 -3.347656 15.710938 -3.863281 15.609375 -4.25 C 15.515625 -4.632812 15.132812 -5.109375 14.46875 -5.671875 L 5.640625 4.765625 L 1.015625 0.859375 Z M 18.953125 -8.6875 C 19.597656 -8.144531 20.503906 -8.566406 21.671875 -9.953125 C 22.179688 -10.554688 22.535156 -11.03125 22.734375 -11.375 C 22.929688 -11.726562 23.007812 -12.023438 22.96875 -12.265625 C 22.925781 -12.503906 22.769531 -12.734375 22.5 -12.953125 L 21.453125 -13.859375 L 17.875 -9.609375 Z M 18.953125 -8.6875 "/></g></g></g><g fill="#ffffff" fill-opacity="1"><g transform="translate(196.990028, 213.153111)"><g><path d="M 0.390625 0.328125 L 21.953125 -20.6875 L 29.71875 -14.125 L 12.546875 10.609375 L 8.203125 6.9375 L 11.015625 2.96875 L 8.25 0.625 L 4.84375 4.09375 Z M 11.6875 -2.71875 L 13.765625 -0.96875 L 22.59375 -13.484375 L 22.375 -13.65625 Z M 11.6875 -2.71875 "/></g></g></g><g fill="#ffffff" fill-opacity="1"><g transform="translate(209.911282, 224.076966)"><g><path d="M 0.796875 0.671875 L 20.140625 -22.21875 L 24.5625 -18.46875 L 5.21875 4.421875 Z M 0.796875 0.671875 "/></g></g></g><g fill="#ffffff" fill-opacity="1"><g transform="translate(215.958962, 229.18978)"><g><path d="M 20.359375 -22.03125 L 26.671875 -16.703125 C 28.304688 -15.316406 29.148438 -13.820312 29.203125 -12.21875 C 29.253906 -10.625 28.535156 -8.929688 27.046875 -7.140625 L 18.046875 3.609375 C 16.171875 5.890625 14.347656 7.257812 12.578125 7.71875 C 10.816406 8.175781 9.015625 7.625 7.171875 6.0625 L 1.015625 0.859375 Z M 9.84375 1.375 C 10.675781 2.082031 11.4375 2.023438 12.125 1.203125 L 22.109375 -10.59375 C 22.546875 -11.101562 22.832031 -11.519531 22.96875 -11.84375 C 23.113281 -12.175781 23.113281 -12.476562 22.96875 -12.75 C 22.832031 -13.019531 22.546875 -13.335938 22.109375 -13.703125 L 21.59375 -14.140625 L 9.046875 0.703125 Z M 9.84375 1.375 "/></g></g></g></svg>